<svg xmlns="http://www.w3.org/2000/svg" width="553.877" height="394.041" viewBox="0 0 553.877 394.041">
  <g id="Group_46" data-name="Group 46" transform="translate(-5658 1276)">
    <path id="Path_950" data-name="Path 950" d="M6244-1560v40.16h66.295v149.163l41.51-17.052V-1519.84h68.005V-1560Z" transform="translate(-586 284)" fill="#c3b374"/>
    <path id="Path_951" data-name="Path 951" d="M6428.205-1560v135.107l173.3,54.535V-1560Z" transform="translate(-579.754 284)" fill="#c3b374"/>
    <path id="Path_952" data-name="Path 952" d="M6467.449-1520.042v61.941l92.117,27.073v-89.014Z" transform="translate(-578.423 285.355)" fill="#fff"/>
    <path id="Path_953" data-name="Path 953" d="M6612.183-1560v41.581h132.641v22.034L6612.183-1477v105.271l40.61-13.819v-54.885l132.6-24.353V-1560Z" transform="translate(-573.515 284)" fill="#c3b374"/>
    <path id="Path_954" data-name="Path 954" d="M6428.205-1424.193v50.644l128.405,38.6v24.614H6428.205V-1180.9l46.662-20.011v-60.244h126.075V-1369.7Z" transform="translate(-579.754 298.944)" fill="#c3b374"/>
  </g>
</svg>
